<?xml version="1.0" standalone="no"?>
<!DOCTYPE svg PUBLIC "-//W3C//DTD SVG 20010904//EN"
 "http://www.w3.org/TR/2001/REC-SVG-20010904/DTD/svg10.dtd">
<svg version="1.0" xmlns="http://www.w3.org/2000/svg"
 width="1063.000000pt" height="1063.000000pt" viewBox="0 0 1063.000000 1063.000000"
 preserveAspectRatio="xMidYMid meet">
<metadata>
Created by potrace 1.14, written by Peter Selinger 2001-2017
</metadata>
<g transform="translate(0.000000,1063.000000) scale(0.100000,-0.100000)"
fill="#000000" stroke="none">
<path d="M5068 10625 c-2 -2 -55 -6 -118 -10 -118 -7 -152 -10 -230 -20 -25
-3 -65 -8 -90 -10 -41 -5 -164 -23 -200 -30 -8 -2 -44 -8 -80 -15 -36 -6 -81
-15 -100 -20 -19 -5 -78 -19 -130 -30 -252 -56 -672 -193 -885 -290 -33 -15
-91 -41 -130 -58 -101 -45 -341 -169 -420 -218 -22 -13 -47 -27 -55 -31 -8 -4
-71 -42 -140 -86 -178 -113 -313 -210 -485 -348 -169 -137 -487 -438 -625
-594 -227 -255 -494 -622 -620 -852 -11 -21 -37 -65 -56 -98 -34 -58 -234
-460 -234 -470 0 -2 -11 -28 -24 -57 -81 -180 -239 -661 -270 -819 -2 -13 -14
-67 -26 -119 -24 -105 -35 -165 -44 -225 -4 -23 -8 -52 -11 -65 -5 -25 -10
-64 -19 -135 -3 -22 -10 -76 -16 -120 -33 -257 -36 -898 -5 -1130 2 -16 7 -59
10 -95 4 -36 9 -74 11 -84 2 -11 8 -56 15 -100 6 -44 12 -83 14 -86 2 -4 7
-29 10 -56 4 -27 16 -89 27 -139 11 -49 22 -101 24 -115 9 -51 68 -260 116
-410 127 -396 269 -712 502 -1115 124 -213 335 -505 536 -740 229 -268 625
-635 870 -805 19 -13 41 -30 48 -37 16 -15 316 -215 363 -241 19 -10 61 -34
94 -52 33 -18 76 -43 95 -55 61 -37 319 -161 465 -223 334 -142 772 -274 1100
-332 33 -5 69 -12 80 -14 51 -9 194 -30 285 -41 25 -3 59 -7 75 -10 220 -27
777 -27 1035 0 153 16 431 61 590 95 129 27 180 40 308 76 749 210 1430 572
2002 1063 35 31 80 70 100 86 65 55 396 389 456 460 32 38 65 76 72 84 87 93
394 523 482 676 184 321 274 502 381 768 73 182 177 499 204 621 3 10 9 33 14
50 12 36 49 205 67 306 4 19 8 44 11 55 2 11 6 36 8 55 3 19 8 46 11 60 10 45
12 54 18 125 4 39 9 79 12 90 7 34 19 165 29 340 6 94 6 512 0 570 -2 22 -6
81 -9 130 -6 81 -8 111 -21 210 -2 17 -7 53 -10 80 -4 28 -15 104 -26 170 -19
117 -24 141 -34 188 -3 12 -7 31 -9 42 -20 95 -50 215 -71 290 -14 50 -28 99
-30 109 -10 42 -89 278 -132 391 -114 300 -295 664 -456 920 -140 220 -321
470 -451 619 -28 32 -69 79 -91 105 -58 68 -381 389 -445 443 -52 44 -71 60
-130 111 -14 12 -45 38 -70 57 -25 19 -47 37 -50 40 -46 48 -327 242 -530 365
-360 218 -861 437 -1235 541 -271 75 -561 139 -710 158 -22 3 -65 8 -95 12
-98 12 -134 16 -295 30 -64 5 -623 13 -627 9z"/>
</g>
</svg>
